<?xml version="1.0" encoding="utf-8"?>
<!-- Generator: Adobe Illustrator 27.4.0, SVG Export Plug-In . SVG Version: 6.00 Build 0)  -->
<svg version="1.1" id="Layer_1" xmlns="http://www.w3.org/2000/svg" xmlns:xlink="http://www.w3.org/1999/xlink" x="0px" y="0px"
	 viewBox="0 0 700 700" style="enable-background:new 0 0 700 700;" xml:space="preserve">
<g>
	<path d="M473.8,449.1c93.5-71.1,111.4-205,39.8-298.5c-71.1-93-205-110.9-298.5-39.8c-93.5,71.1-110.9,205-39.8,298.5
		C246.4,502.3,380.2,520.2,473.8,449.1L473.8,449.1z M513.5,320.3c0.6-2.8,3.9-5,6.7-3.9c2.8,0.6,5,3.9,3.9,6.7
		c-10.1,41.4-33.6,78.4-67.8,104.2c-18.5,14-39.2,24.6-61.6,30.8h-1.7c-2.2,0-4.5-1.7-5.6-3.9c-1.1-2.8,1.1-6.2,3.9-6.7
		c20.7-6.2,40.3-15.7,57.7-29.1C481.6,393.7,504,359,513.5,320.3L513.5,320.3z M482.2,306.3c2.8,0.6,5,3.9,3.9,6.7
		c-7.8,32.5-26.9,62.2-53.2,82.3c-14.6,11.2-30.2,19-47.6,24.1h-1.7c-2.2,0-4.5-1.7-5.6-3.9c-1.1-2.8,1.1-6.2,3.9-6.7
		c16.2-4.5,30.8-12.3,44.2-22.4c24.6-19,42-45.9,49.3-76.2C476,308,478.8,305.8,482.2,306.3L482.2,306.3z M437.4,301.3
		c0.6-2.8,3.9-5,6.7-4.5c2.8,0.6,5,3.9,4.5,6.7c-5.6,24.1-19.6,45.9-39.2,60.5c-10.1,7.8-21.8,13.4-34.2,17.4h-1.7
		c-2.2,0-4.5-1.7-5.6-3.9c-1.1-2.8,0.6-6.2,3.9-6.7c11.2-3.4,21.3-8.4,30.8-15.7C420,342.2,432.3,323.1,437.4,301.3L437.4,301.3z
		 M388.6,245.8c19,24.6,14,59.9-10.6,78.4c-24.6,19-59.9,14-78.4-10.6c-18.5-24.6-14-59.9,10.6-78.4
		C334.9,216.7,370.2,221.2,388.6,245.8L388.6,245.8z M320.9,182c1.1,2.8-0.6,6.2-3.9,6.7c-11.2,3.4-21.3,8.4-30.2,15.7
		c-15.7,12.3-27.4,28.6-33,48.2c-0.6,2.2-2.8,3.9-5.6,3.9h-1.7c-2.8-1.1-4.5-3.9-3.9-6.7c6.7-21.8,19.6-40.3,37-53.8
		c10.1-7.8,21.3-13.4,34.2-17.4C317,177.5,319.8,179.2,320.9,182L320.9,182z M308.6,144.5c1.1,2.8-0.6,6.2-3.9,6.7
		c-15.1,4.5-29.1,11.8-42,21.8c-23,17.9-39.8,42-47.6,70c-0.6,2.2-2.8,3.9-5.6,3.9h-1.7c-2.8-1.1-4.5-3.9-3.9-6.7
		c8.4-30.2,26.3-56.6,51.5-75.6c14-10.6,29.1-18.5,45.4-23.5C304.6,140,307.4,141.7,308.6,144.5L308.6,144.5z M171.9,238h-1.7
		c-2.8-0.6-4.5-3.9-3.9-6.7c10.6-39.2,33.6-72.8,66.1-97.4c17.4-13.4,36.4-23,57.1-29.7c2.8-1.1,6.2,0.6,7.3,3.9
		c1.1,2.8-0.6,6.2-3.9,7.3c-19.6,6.2-37.5,15.7-53.8,28c-30.2,23-51.5,54.9-62.2,91.8C176.4,236.3,174.2,238,171.9,238L171.9,238z"
		/>
</g>
</svg>
