<?xml version="1.0" encoding="utf-8"?>
<!-- Generator: Adobe Illustrator 27.4.0, SVG Export Plug-In . SVG Version: 6.00 Build 0)  -->
<svg version="1.1" id="Layer_1" xmlns="http://www.w3.org/2000/svg" xmlns:xlink="http://www.w3.org/1999/xlink" x="0px" y="0px"
	 viewBox="0 0 700 700" style="enable-background:new 0 0 700 700;" xml:space="preserve">
<g>
	<path d="M553.5,272.9c0.1-41.1,0.3-82.2,0.5-123.4c-6.1-12.9-4.9-27.2-7.8-40.7C540.5,82,543.7,53.3,530,28
		c-27.5,5.2-55.1,10.3-82.6,15.4c-14.2,6.7-28.4,13.3-42.5,20c-43.8,10.6-83.8,29.8-121.7,53.9c-20.5,3.3-34,16.5-45.6,32.3
		l-0.2,0.1c-19.9,11.7-11.6,29.4-7.6,44.3c11.1,41.1,16.1,82.7,14.4,125.1c-15,2.9-29.9,5.8-44.9,8.8l0.2-0.2
		c-16.8,9.1-29.4,22.4-39.1,38.8c-12.9,26.1-16.8,53.8-14.4,82.5c2.4,28.5,41.6,79,67.1,82c21.1,2.5,43.2,0.3,63-10.4
		c14.4-2.4,18.2-17.8,29.6-24c5.4-20.8,13.4-41.4,15.8-62.6c4.4-37.8,5.4-75.9,7.9-113.9l0-0.1c-12.4-19.5-1.3-44.3-14.2-63.8
		c0.2-12.8,2-25.8,0.1-38.3c-3.2-21.2,4-32.2,24.4-40.4c38-15.1,74.4-34,111.8-50.6c9.6-4.3,19.4-13.5,31.6-4.7
		c0.5,3.9,1.4,7.7,1.4,11.4c-0.2,46.1-0.5,92.1-0.8,138.2c-16.2,3-32.7,4.6-48.4,9.1c-47.5,13.7-75.2,51.7-74.4,100
		c-2,1.7-2.4,3.8-1.1,6.1c-12.1,20.8-0.2,38.2,8.2,56c-0.4,6.8,2.3,11.8,8.8,14.4l0.2,0.4c3.1,12.2,13.3,17.1,23,22.6l0.4,0.6
		c0.2,4.5,2.5,7,6.9,7.6l0.2,0.2c10.7,18.4,29.4,14,45.8,15.8c7.7,7.8,15.7,6.1,23.7,0.6c31.4-5,48.7-24.7,56.3-54.4
		C548.6,392.6,557.8,333.5,553.5,272.9L553.5,272.9z M245.4,226.2c-0.2-2-0.2-4-0.2-5.8C245.3,222.3,245.3,224.2,245.4,226.2z
		 M368.7,404.4c0.3,0,0.6,0.1,0.9,0.1c-0.3,0.2-0.5,0.4-0.8,0.5C368.7,404.8,368.7,404.6,368.7,404.4z M368.6,404.3
		c0,0-0.1-0.1-0.1-0.1c0.1,0,0.1-0.1,0.2-0.1C368.7,404.2,368.6,404.2,368.6,404.3z"/>
</g>
</svg>
