<?xml version="1.0" encoding="utf-8"?>
<!-- Generator: Adobe Illustrator 27.4.0, SVG Export Plug-In . SVG Version: 6.00 Build 0)  -->
<svg version="1.1" id="Layer_1" xmlns="http://www.w3.org/2000/svg" xmlns:xlink="http://www.w3.org/1999/xlink" x="0px" y="0px"
	 viewBox="0 0 700 700" style="enable-background:new 0 0 700 700;" xml:space="preserve">
<g>
	<path d="M325.9,501.8c10.1,1.1,20.2,2.2,30.2,2.2c48.7,0,96.3-15.7,135.5-45.9c47.6-36.4,77.8-89,86.2-148.4
		c7.8-59.4-7.8-118.2-44.2-165.8c-36.4-47.6-89-77.8-148.4-86.2c-59.4-7.8-118.2,7.8-165.8,44.2c-47.6,36.4-77.8,89-86.2,148.4
		c-7.8,59.4,7.8,118.2,44.2,165.8C213.9,463.7,266.6,493.9,325.9,501.8L325.9,501.8z M155.7,253.1c7.3-53.2,34.7-100.8,77.3-133.3
		C268.2,93,310.8,78.4,355,78.4c9,0,17.9,0.6,26.9,1.7c53.2,7.3,100.8,34.7,133.3,77.3c32.5,42.6,47,95.8,39.8,149
		c-7.3,53.2-34.7,100.8-77.3,133.3c-42.6,32.5-95.8,47-149,39.8c-53.2-7.3-100.8-34.7-133.3-77.3C163,359.5,148.4,306.9,155.7,253.1
		L155.7,253.1z"/>
	<path d="M302.4,320.9c10.6,14,26.9,23.5,44.2,25.8c2.8,0.6,6.2,0.6,9,0.6c14.6,0,28.6-5,40.9-14c29.7-22.4,35.3-65,12.9-94.1
		c-10.6-14-26.9-23.5-44.2-25.8c-17.9-2.2-35.3,2.2-49.8,13.4C285.6,249.2,279.4,291.2,302.4,320.9L302.4,320.9z M328.2,244.2
		c7.8-6.2,17.4-9,26.9-9c2.2,0,3.9,0,6.2,0.6c11.8,1.7,22.4,7.8,29.7,17.4c7.3,9.5,10.6,21.3,9,33c-1.7,11.8-7.8,22.4-17.4,29.7
		s-21.3,10.6-33,9c-11.8-1.7-22.4-7.8-29.7-17.4s-10.6-21.3-9-33C312.5,262.6,318.6,251.4,328.2,244.2L328.2,244.2z"/>
	<path d="M253.7,146.7c15.7-11.8,33-21.3,52.1-26.9c6.2-1.7,9-8.4,7.3-14c-1.7-6.2-8.4-9-14-7.3c-21.3,6.7-40.9,16.8-58.8,30.2
		c-33,25.2-56.6,60.5-67.8,100.8c-1.7,6.2,1.7,12.3,7.8,14c1.1,0,2.2,0.6,2.8,0.6c5,0,9.5-3.4,10.6-8.4
		C203.3,199.4,224,169.1,253.7,146.7L253.7,146.7z"/>
	<path d="M457.5,413.3c-16.8,12.9-35.3,22.4-56,28c-6.2,1.7-9.5,7.8-7.8,14c1.7,5,6.2,8.4,10.6,8.4c1.1,0,2.2,0,3.4-0.6
		c23-6.7,44.2-17.4,63.3-31.9c34.7-26.3,59.4-65,69.4-107.5c1.7-6.2-2.2-12.3-8.4-13.4c-6.2-1.7-12.3,2.2-13.4,8.4
		C510.2,356.2,488.3,389.8,457.5,413.3L457.5,413.3z"/>
	<path d="M434,382.5c-12.9,9.5-26.9,16.8-42,21.3c-6.2,1.7-9.5,7.8-7.8,14c1.7,5,6.2,7.8,10.6,7.8c1.1,0,2.2,0,3.4-0.6
		c17.9-5,34.7-13.4,49.8-25.2c28-21.3,47.6-51.5,55.4-85.7c1.7-6.2-2.2-12.3-8.4-13.4c-6.2-1.7-12.3,2.2-13.4,8.4
		C474.3,338.2,457.5,364.6,434,382.5L434,382.5z"/>
	<path d="M409.9,351.1c-8.4,6.7-18.5,11.2-28.6,14.6c-6.2,1.7-9.5,7.8-7.3,14c1.7,5,6.2,7.8,10.6,7.8c1.1,0,2.2,0,3.4-0.6
		c13.4-3.9,25.2-10.1,35.8-18.5c20.7-15.7,35.3-38.6,40.9-63.8c1.1-6.2-2.2-11.8-8.4-13.4c-6.2-1.1-11.8,2.2-13.4,8.4
		C438.5,320.3,426.7,338.8,409.9,351.1L409.9,351.1z"/>
	<path d="M287.8,191c-18.5,14.6-32.5,34.2-39.2,56.6c-1.7,6.2,1.7,12.3,7.3,14c1.1,0.6,2.2,0.6,3.4,0.6c5,0,9.5-3.4,10.6-7.8
		c5.6-17.9,16.2-33.6,31.4-45.4c8.4-6.7,17.9-11.2,28.6-14.6c6.2-1.7,9.5-7.8,7.3-14c-1.7-6.2-7.8-9.5-14-7.3
		C310.2,177,298.5,183.1,287.8,191L287.8,191z"/>
	<path d="M311.4,135.5c-16.8,5-33,13.4-47,24.6c-26.3,20.2-44.8,47-53.8,78.4c-1.7,6.2,1.7,12.3,7.8,14c1.1,0.6,2.2,0.6,2.8,0.6
		c5,0,9.5-3.4,10.6-8.4c7.8-26.9,23.5-49.8,45.9-67.2c12.3-9.5,25.8-16.2,40.3-20.7c6.2-1.7,9-7.8,7.3-14
		C323.1,137.2,317,133.8,311.4,135.5L311.4,135.5z"/>
</g>
</svg>
